<svg xmlns="http://www.w3.org/2000/svg" width="1200" height="680" viewBox="0 0 1200 680">
  <rect width="1200" height="680" fill="#f5f7fb"/>
  <rect x="28" y="28" width="1144" height="624" rx="14" fill="#ffffff" stroke="#d7deea"/>
  <text x="56" y="86" font-family="Inter, Segoe UI, Arial, sans-serif" font-size="34" font-weight="700" fill="#172033">Risk Monitoring</text>
  <text x="56" y="124" font-family="Inter, Segoe UI, Arial, sans-serif" font-size="17" fill="#5b6472">Scenario risks linked to collections, workstreams, and mitigation owners</text>
  
            <rect x="44" y="150" width="210" height="112" rx="8" fill="#ffffff" stroke="#d8dee8"/>
            <text x="62" y="190" font-size="14" fill="#5b6472">Scenario records</text>
            <text x="62" y="232" font-size="30" font-weight="700" fill="#172033">190</text>
            
            <rect x="276" y="150" width="210" height="112" rx="8" fill="#ffffff" stroke="#d8dee8"/>
            <text x="294" y="190" font-size="14" fill="#5b6472">Open critical</text>
            <text x="294" y="232" font-size="30" font-weight="700" fill="#172033">23</text>
            
            <rect x="508" y="150" width="210" height="112" rx="8" fill="#ffffff" stroke="#d8dee8"/>
            <text x="526" y="190" font-size="14" fill="#5b6472">Blocked milestones</text>
            <text x="526" y="232" font-size="30" font-weight="700" fill="#172033">44</text>
            
            <rect x="740" y="150" width="210" height="112" rx="8" fill="#ffffff" stroke="#d8dee8"/>
            <text x="758" y="190" font-size="14" fill="#5b6472">At-risk share</text>
            <text x="758" y="232" font-size="30" font-weight="700" fill="#172033">53.3%</text>
            
  <rect x="56" y="318" width="1088" height="24" rx="12" fill="#e8edf5"/>
  <rect x="56" y="318" width="782" height="24" rx="12" fill="#2f6f73"/>
  <rect x="56" y="378" width="506" height="42" rx="7" fill="#eaf4f1"/>
  <rect x="584" y="378" width="386" height="42" rx="7" fill="#fff3df"/>
  <rect x="56" y="454" width="634" height="42" rx="7" fill="#eef1f7"/>
  <rect x="712" y="454" width="286" height="42" rx="7" fill="#f8e7e7"/>
  <text x="56" y="580" font-family="Inter, Segoe UI, Arial, sans-serif" font-size="16" fill="#5b6472">Static recruiter preview generated from synthetic scenario data. Full interactive app runs with Streamlit.</text>
</svg>
